<svg xmlns="http://www.w3.org/2000/svg" version="1.1" xmlns:xlink="http://www.w3.org/1999/xlink" xmlns:svgjs="http://svgjs.dev/svgjs" width="100%" height="100%" viewBox="0 0 1000 600"><rect width="1000" height="600" x="0" y="0" fill="#d2302c"/><g><rect width="333.3333333333333" height="333.3333333333333" rx="13.333333333333334" ry="13.333333333333334" y="153.38293051557054" fill="#f7f7f9" transform="matrix(0.9530292610540885,0,0,0.9530292610540885,0,-5.016641830621438)" x="131.1606750488281"/><path d="M352.9305858995996 349.5879613057345L367.04238951951993 361.39162313274863Q356.72879391324284 376.52602121788055 340.8347542253822 385.7878053742258Q324.96993152224195 395.04958953057104 303.2909288597557 395.04958953057104L303.2909288597557 395.04958953057104Q282.6929546319217 395.04958953057104 265.5425846010868 385.46641854230216Q248.39221457025192 375.8832475540333 238.51687373477972 358.84974546207974Q228.61231591458719 341.8162433701262 228.61231591458719 320.3709765854026L228.61231591458719 320.3709765854026Q228.61231591458719 298.2829361368316 238.28313785701707 281.13256610599683Q247.98317678416728 263.98219607516194 264.1693863192312 254.5158930257744Q280.3555958542951 245.04958997638684 299.08368306002785 245.04958997638684L299.08368306002785 245.04958997638684Q314.24729812988016 245.04958997638684 325.90487503329257 250.51316611908894Q337.59166892142537 255.976742261791 345.56790575007597 265.8813000819835L345.56790575007597 265.8813000819835L345.80164162783865 248.00050543314038L365.3478044057407 248.00050543314038L365.3478044057407 294.89376590927316L351.46973666358303 296.1793132369678Q336.3353385784511 262.5213468391454 302.23911740982373 262.5213468391454L302.23911740982373 262.5213468391454Q288.56556856070836 262.5213468391454 276.90799165729595 269.5626401567454Q265.22119776916315 276.60393347434535 258.1799044515632 289.7515765984947Q251.1386111339631 302.89921972264415 251.1386111339631 320.13724070763993L251.1386111339631 320.13724070763993Q251.1386111339631 336.5571861204665 258.06303651268183 349.50031035157355Q265.01667887612086 362.4434345826806 276.90799165729595 369.8061147322042Q288.77008745375065 377.16879488172793 303.2909288597557 377.16879488172793L303.2909288597557 377.16879488172793Q320.32443095170913 377.16879488172793 332.21574373288433 369.8061147322042Q344.1070565140594 362.4434345826806 352.9305858995996 349.5879613057345L352.9305858995996 349.5879613057345Z " fill="#d2302c" transform="matrix(0.9530292610540885,0,0,0.9530292610540885,0,-5.016641830621438)"/><path d="M603.5416387248846 395.0495943283632Q588.7499713864829 395.0495943283632 575.8928279454578 388.41268926505626Q563.0356845044327 381.7460222956358 555.4463984454943 369.5436407891073Q547.8273504804423 357.34125928257885 547.8273504804423 341.68649666688617L547.8273504804423 341.68649666688617Q547.8273504804423 325.8234007083992 555.4463984454943 313.7103049202112Q563.0356845044327 301.62697103813673 575.8928279454578 294.96030406871625Q588.7499713864829 288.3233990054093 603.5416387248846 288.3233990054093L603.5416387248846 288.3233990054093Q618.1249727204917 288.3233990054093 630.8630685370629 294.96030406871625Q643.6309262597475 301.62697103813673 651.33925994314 313.82935254466514Q659.0475936265323 326.0317340511936 659.0475936265323 341.68649666688617L659.0475936265323 341.68649666688617Q659.0475936265323 357.34125928257885 651.5475932859343 369.5436407891073Q644.0475929453363 381.7460222956358 631.3094971287652 388.41268926505626Q618.5416394060804 395.0495943283632 603.5416387248846 395.0495943283632L603.5416387248846 395.0495943283632ZM603.5416387248846 378.11506974979073Q613.1844963056534 378.11506974979073 620.8928299890457 373.6210219266546Q628.6309255785516 369.12697410351853 633.0059257772338 360.8531642039699Q637.4106878820294 352.60911621053486 637.4106878820294 341.68649666688617L637.4106878820294 341.68649666688617Q637.4106878820294 330.7638771232376 633.0059257772338 322.51982912980253Q628.6309255785516 314.2460192302539 620.8928299890457 309.7519714071178Q613.1844963056534 305.2579235839818 603.5416387248846 305.2579235839818L603.5416387248846 305.2579235839818Q588.7499713864829 305.2579235839818 579.226161430168 315.2281621319989Q569.7023514738531 325.19840068001605 569.7023514738531 341.68649666688617L569.7023514738531 341.68649666688617Q569.7023514738531 358.1745926537564 579.226161430168 368.14483120177357Q588.7499713864829 378.11506974979073 603.5416387248846 378.11506974979073L603.5416387248846 378.11506974979073ZM798.1249808948434 374.6924505467401L802.6190287179794 390.1091179135248Q799.6130762005175 391.8353084681069 795.3273617201759 392.9960228065327Q791.0416472398341 394.1864990510721 786.3392660739037 394.1864990510721L786.3392660739037 394.1864990510721Q778.3928371416034 394.1864990510721 772.6190273555875 390.0198321951844Q766.8452175695717 385.82340343318305 764.7023603294007 377.90673640699634L764.7023603294007 377.90673640699634Q756.1309313687174 385.61507009038877 746.577359506289 390.3174512563192Q737.053549549974 395.0495943283632 725.4761680718287 395.0495943283632L725.4761680718287 395.0495943283632Q712.4106912880093 395.0495943283632 701.1606907771122 388.41268926505626Q689.9106902662153 381.7460222956358 683.2737852029084 369.8710217563557Q676.6071182334879 357.966259310962 676.6071182334879 342.96625862976606L676.6071182334879 342.96625862976606Q676.6071182334879 327.34125792018693 683.5714042640432 314.78173354029667Q690.5356902945985 302.2519710665198 702.559500364446 295.2876850359646Q714.55354852818 288.3233990054093 729.1071206176738 288.3233990054093L729.1071206176738 288.3233990054093Q747.7678357508283 288.3233990054093 763.3928364604075 302.0436377237255L763.3928364604075 302.0436377237255L763.3928364604075 261.9841120949759L740.6845020958191 261.9841120949759L740.6845020958191 245.04958751640345L783.9880754909384 245.04958751640345L783.9880754909384 366.12102158605666Q783.9880754909384 376.38887919520863 791.0416472398341 376.38887919520863L791.0416472398341 376.38887919520863Q795.7737903118781 376.38887919520863 798.1249808948434 374.6924505467401L798.1249808948434 374.6924505467401ZM698.4821192268987 342.75792528697167Q698.4821192268987 358.1745926537564 707.1428339059225 367.6091168917308Q715.8333104910599 377.04364112970524 729.7618825521705 377.04364112970524L729.7618825521705 377.04364112970524Q745.8333118534518 377.04364112970524 763.3928364604075 362.46030713409806L763.3928364604075 362.46030713409806L763.3928364604075 318.1150670250068Q748.3928357792115 306.1210188612728 733.8392636897178 306.1210188612728L733.8392636897178 306.1210188612728Q723.7499775172467 306.1210188612728 715.6249771482655 310.8234000272032Q707.4702148731709 315.55554309924725 702.9761670500349 323.8888768110227Q698.4821192268987 332.25197242891176 698.4821192268987 342.75792528697167L698.4821192268987 342.75792528697167ZM909.1071287920255 363.32340241138917L918.1249863444112 377.04364112970524Q897.5595092199936 395.0495943283632 871.1904604034468 395.0495943283632L871.1904604034468 395.0495943283632Q856.8452216567474 395.0495943283632 843.9880782157223 389.0376892934394Q831.1309347746973 383.0555461646291 823.184505842397 371.4781646864838Q815.2678388162102 359.9007832083385 815.2678388162102 344.03768724985144L815.2678388162102 344.03768724985144Q815.2678388162102 327.103162671279 823.3928391851914 314.48411447916175Q831.547601460286 301.8353043809311 844.6130782441055 295.0793516931702Q857.678555027925 288.3233990054093 872.0535556807378 288.3233990054093L872.0535556807378 288.3233990054093Q884.7023657789686 288.3233990054093 894.6428424208722 292.4007801429566Q904.6130809688894 296.47816128050397 910.2976050365648 303.7698282783075Q915.9821291042402 311.0317333699976 915.9821291042402 320.46625760797207L915.9821291042402 320.46625760797207Q915.9821291042402 334.60316301187703 903.8690333160523 342.4305443197233Q891.7559375278644 350.2579256275696 874.8214129492918 350.2579256275696L874.8214129492918 350.2579256275696Q863.8987934056432 350.2579256275696 854.4642691676687 347.99602076294485Q845.0595068358077 345.76387780443355 835.4166492550389 341.4781633240919L835.4166492550389 341.4781633240919L835.4166492550389 343.4126872214683Q835.4166492550389 353.472211487826 840.2380780454233 361.1805451712183Q845.0595068358077 368.8888788546107 853.1845072047889 372.966259992158Q861.3392694798836 377.04364112970524 870.9821270606525 377.04364112970524L870.9821270606525 377.04364112970524Q892.8273661479496 377.04364112970524 909.1071287920255 363.32340241138917L909.1071287920255 363.32340241138917ZM873.541650986412 305.0495902411874Q861.9642695082667 305.0495902411874 852.023792866363 311.68649530449426Q842.0535543183458 318.3234003678012 837.7678398380042 329.6924485031521L837.7678398380042 329.6924485031521Q854.0476024820799 335.466258289168 870.3273651261558 335.466258289168L870.3273651261558 335.466258289168Q881.0416513270101 335.466258289168 888.0059373575652 331.5079247760746Q894.9702233881206 327.5495912629813 894.9702233881206 320.46625760797207L894.9702233881206 320.46625760797207Q894.9702233881206 313.62101920187075 888.9880802593102 309.33530472152904Q882.9761752243865 305.0495902411874 873.541650986412 305.0495902411874L873.541650986412 305.0495902411874Z " fill="#f7f7f9" transform="matrix(0.9530292610540885,0,0,0.9530292610540885,0,-5.016641830621438)"/></g></svg>